G04 #@! TF.GenerationSoftware,KiCad,Pcbnew,(5.1.2)-2*
G04 #@! TF.CreationDate,2019-08-01T21:41:24-03:00*
G04 #@! TF.ProjectId,Frequency_Inverter,46726571-7565-46e6-9379-5f496e766572,rev?*
G04 #@! TF.SameCoordinates,Original*
G04 #@! TF.FileFunction,Drawing*
%FSLAX46Y46*%
G04 Gerber Fmt 4.6, Leading zero omitted, Abs format (unit mm)*
G04 Created by KiCad (PCBNEW (5.1.2)-2) date 2019-08-01 21:41:24*
%MOMM*%
%LPD*%
G04 APERTURE LIST*
%ADD10C,0.150000*%
G04 APERTURE END LIST*
D10*
X209663082Y-101495364D02*
X209662941Y-102066793D01*
X209663012Y-101781078D02*
X208663012Y-101780832D01*
X208805845Y-101876105D01*
X208901060Y-101971367D01*
X208948656Y-102066616D01*
X208663235Y-100876070D02*
X208663258Y-100780832D01*
X208710901Y-100685605D01*
X208758532Y-100637998D01*
X208853782Y-100590402D01*
X209044270Y-100542830D01*
X209282365Y-100542889D01*
X209472829Y-100590555D01*
X209568056Y-100638198D01*
X209615663Y-100685828D01*
X209663258Y-100781078D01*
X209663235Y-100876316D01*
X209615592Y-100971543D01*
X209567962Y-101019150D01*
X209472712Y-101066746D01*
X209282224Y-101114318D01*
X209044129Y-101114259D01*
X208853664Y-101066593D01*
X208758438Y-101018950D01*
X208710831Y-100971320D01*
X208663235Y-100876070D01*
X208758649Y-100161808D02*
X208711042Y-100114177D01*
X208663446Y-100018927D01*
X208663505Y-99780832D01*
X208711148Y-99685605D01*
X208758778Y-99637998D01*
X208854028Y-99590403D01*
X208949266Y-99590426D01*
X209092112Y-99638080D01*
X209663399Y-100209650D01*
X209663552Y-99590602D01*
X209568420Y-99162007D02*
X209616050Y-99114400D01*
X209663658Y-99162031D01*
X209616027Y-99209638D01*
X209568420Y-99162007D01*
X209663658Y-99162031D01*
X209663787Y-98638221D02*
X209663834Y-98447745D01*
X209616238Y-98352495D01*
X209568631Y-98304864D01*
X209425797Y-98209591D01*
X209235333Y-98161925D01*
X208854381Y-98161831D01*
X208759131Y-98209427D01*
X208711500Y-98257034D01*
X208663857Y-98352260D01*
X208663810Y-98542737D01*
X208711406Y-98637986D01*
X208759013Y-98685617D01*
X208854240Y-98733260D01*
X209092335Y-98733318D01*
X209187585Y-98685723D01*
X209235215Y-98638116D01*
X209282858Y-98542889D01*
X209282905Y-98352413D01*
X209235309Y-98257163D01*
X209187702Y-98209532D01*
X209092476Y-98161890D01*
X209664022Y-97685840D02*
X209664069Y-97495364D01*
X209616473Y-97400114D01*
X209568866Y-97352483D01*
X209426032Y-97257210D01*
X209235568Y-97209544D01*
X208854615Y-97209450D01*
X208759366Y-97257046D01*
X208711735Y-97304653D01*
X208664092Y-97399879D01*
X208664045Y-97590356D01*
X208711641Y-97685605D01*
X208759248Y-97733236D01*
X208854474Y-97780879D01*
X209092570Y-97780937D01*
X209187820Y-97733342D01*
X209235450Y-97685735D01*
X209283093Y-97590508D01*
X209283140Y-97400032D01*
X209235544Y-97304782D01*
X209187937Y-97257151D01*
X209092711Y-97209509D01*
X208664221Y-96876070D02*
X208664386Y-96209403D01*
X209664280Y-96638221D01*
X209664668Y-95066793D02*
X208998001Y-95066628D01*
X209093239Y-95066652D02*
X209045632Y-95019021D01*
X208998036Y-94923771D01*
X208998071Y-94780914D01*
X209045714Y-94685688D01*
X209140964Y-94638092D01*
X209664773Y-94638221D01*
X209140964Y-94638092D02*
X209045737Y-94590450D01*
X208998142Y-94495200D01*
X208998177Y-94352343D01*
X209045820Y-94257116D01*
X209141069Y-94209521D01*
X209664879Y-94209650D01*
X209664996Y-93733459D02*
X208998330Y-93733295D01*
X209093568Y-93733319D02*
X209045961Y-93685688D01*
X208998365Y-93590438D01*
X208998400Y-93447581D01*
X209046043Y-93352354D01*
X209141293Y-93304759D01*
X209665102Y-93304888D01*
X209141293Y-93304759D02*
X209046066Y-93257116D01*
X208998471Y-93161866D01*
X208998506Y-93019009D01*
X209046148Y-92923783D01*
X209141398Y-92876187D01*
X209665208Y-92876317D01*
X207924400Y-45948813D02*
X207899000Y-148945813D01*
X207060800Y-45948600D02*
X208510821Y-45948958D01*
X207035400Y-148945600D02*
X208485421Y-148945958D01*
X207899000Y-148945813D02*
X207312857Y-147819165D01*
X207899000Y-148945813D02*
X208485699Y-147819454D01*
X207924400Y-45948813D02*
X207337701Y-47075172D01*
X207924400Y-45948813D02*
X208510543Y-47075461D01*
X137645552Y-42218685D02*
X137074124Y-42218796D01*
X137359838Y-42218740D02*
X137359644Y-41218740D01*
X137264434Y-41361616D01*
X137169214Y-41456873D01*
X137073985Y-41504510D01*
X137978691Y-41218620D02*
X138597739Y-41218500D01*
X138264480Y-41599517D01*
X138407337Y-41599489D01*
X138502584Y-41647090D01*
X138550213Y-41694700D01*
X138597850Y-41789928D01*
X138597896Y-42028024D01*
X138550296Y-42123271D01*
X138502686Y-42170899D01*
X138407457Y-42218537D01*
X138121743Y-42218592D01*
X138026496Y-42170992D01*
X137978867Y-42123382D01*
X139216787Y-41218380D02*
X139312025Y-41218361D01*
X139407272Y-41265962D01*
X139454900Y-41313571D01*
X139502538Y-41408800D01*
X139550194Y-41599267D01*
X139550240Y-41837362D01*
X139502658Y-42027848D01*
X139455058Y-42123095D01*
X139407448Y-42170723D01*
X139312219Y-42218361D01*
X139216981Y-42218380D01*
X139121734Y-42170779D01*
X139074105Y-42123169D01*
X139026468Y-42027940D01*
X138978812Y-41837473D01*
X138978765Y-41599378D01*
X139026347Y-41408893D01*
X139073948Y-41313645D01*
X139121558Y-41266017D01*
X139216787Y-41218380D01*
X139978867Y-42122993D02*
X140026496Y-42170603D01*
X139978886Y-42218232D01*
X139931257Y-42170622D01*
X139978867Y-42122993D01*
X139978886Y-42218232D01*
X140359644Y-41218158D02*
X141026310Y-41218028D01*
X140597933Y-42218111D01*
X141312025Y-41217972D02*
X141931072Y-41217852D01*
X141597813Y-41598869D01*
X141740670Y-41598842D01*
X141835918Y-41646442D01*
X141883546Y-41694052D01*
X141931183Y-41789281D01*
X141931230Y-42027376D01*
X141883629Y-42122623D01*
X141836019Y-42170252D01*
X141740790Y-42217889D01*
X141455076Y-42217945D01*
X141359829Y-42170344D01*
X141312201Y-42122734D01*
X142788280Y-41551019D02*
X142788409Y-42217686D01*
X142550111Y-41170113D02*
X142312154Y-41884445D01*
X142931202Y-41884325D01*
X144074124Y-42217436D02*
X144073994Y-41550769D01*
X144074013Y-41646007D02*
X144121623Y-41598379D01*
X144216851Y-41550741D01*
X144359708Y-41550714D01*
X144454956Y-41598314D01*
X144502593Y-41693543D01*
X144502695Y-42217353D01*
X144502593Y-41693543D02*
X144550194Y-41598296D01*
X144645423Y-41550658D01*
X144788280Y-41550630D01*
X144883527Y-41598231D01*
X144931165Y-41693460D01*
X144931267Y-42217269D01*
X145407457Y-42217177D02*
X145407328Y-41550510D01*
X145407346Y-41645748D02*
X145454956Y-41598120D01*
X145550185Y-41550482D01*
X145693042Y-41550455D01*
X145788289Y-41598055D01*
X145835927Y-41693284D01*
X145836028Y-42217094D01*
X145835927Y-41693284D02*
X145883527Y-41598037D01*
X145978756Y-41550399D01*
X146121613Y-41550371D01*
X146216861Y-41597972D01*
X146264498Y-41693201D01*
X146264600Y-42217010D01*
X76326437Y-43078218D02*
X207060237Y-43052818D01*
X76327000Y-45974000D02*
X76326323Y-42491797D01*
X207060800Y-45948600D02*
X207060123Y-42466397D01*
X207060237Y-43052818D02*
X205933847Y-43639458D01*
X207060237Y-43052818D02*
X205933619Y-42466616D01*
X76326437Y-43078218D02*
X77453055Y-43664420D01*
X76326437Y-43078218D02*
X77452827Y-42491578D01*
M02*
