M48
; DRILL file {KiCad (5.1.2)-2} date 01/08/2019 21:41:31
; FORMAT={-:-/ absolute / inch / decimal}
; #@! TF.CreationDate,2019-08-01T21:41:31-03:00
; #@! TF.GenerationSoftware,Kicad,Pcbnew,(5.1.2)-2
; #@! TF.FileFunction,Plated,1,2,PTH
FMAT,2
INCH
T1C0.0157
T2C0.0197
T3C0.0299
T4C0.0315
T5C0.0394
T6C0.0472
T7C0.0520
T8C0.0551
T9C0.0630
T10C0.0787
T11C0.1378
%
G90
G05
T1
X3.075Y-1.88
X3.075Y-2.035
X3.075Y-2.215
X3.075Y-2.39
X3.075Y-2.63
X3.295Y-1.88
X3.33Y-2.68
X3.405Y-2.325
X3.515Y-2.785
X3.535Y-1.88
X3.565Y-2.23
X3.665Y-2.365
X3.7Y-2.96
X3.76Y-2.8
X3.785Y-1.88
X3.815Y-2.685
X3.83Y-2.24
X3.88Y-3.135
X3.925Y-2.9175
X3.99Y-2.785
X4.02Y-1.88
X4.035Y-2.32
X4.06Y-3.325
X4.065Y-2.68
X4.075Y-3.115
X4.14Y-2.9175
X4.205Y-2.26
X4.235Y-3.51
X4.295Y-1.875
X4.355Y-2.475
X4.36Y-3.385
X4.37Y-3.065
X4.4Y-2.68
X4.445Y-3.715
X4.495Y-2.34
X4.605Y-2.735
X4.62Y-1.84
X4.635Y-3.49
X4.645Y-2.855
X4.68Y-1.975
X4.69Y-2.593
X4.715Y-3.14
X4.77Y-2.78
X4.8Y-3.715
X4.81Y-2.78
X4.81Y-3.44
X4.845Y-1.975
X4.85Y-2.78
X4.885Y-1.835
X4.886Y-3.831
X4.89Y-2.78
X4.975Y-2.865
X5.04Y-1.965
X5.045Y-3.52
X5.065Y-2.655
X5.07Y-3.71
X5.09Y-3.11
X5.17Y-3.155
X5.177Y-2.0705
X5.18Y-2.1751
X5.18Y-2.2797
X5.18Y-2.3843
X5.18Y-2.4889
X5.18Y-2.5935
X5.195Y-1.835
X5.195Y-1.965
X5.22Y-3.79
X5.275Y-4.01
X5.275Y-4.19
X5.275Y-4.32
X5.28Y-3.515
X5.325Y-2.76
X5.325Y-3.885
X5.41Y-3.1
X5.4117Y-4.105
X5.4117Y-4.325
X5.4117Y-4.5
X5.415Y-2.715
X5.45Y-1.835
X5.4515Y-3.95
X5.4883Y-4.195
X5.545Y-3.73
X5.584Y-2.468
X5.611Y-3.8159
X5.639Y-2.684
X5.64Y-2.54
X5.655Y-3.955
X5.685Y-2.425
X5.685Y-3.02
X5.685Y-3.19
X5.685Y-3.36
X5.698Y-2.622
X5.7Y-2.685
X5.715Y-1.835
X5.73Y-3.41
X5.78Y-2.975
X5.805Y-3.365
X5.81Y-3.08
X5.815Y-3.455
X5.82Y-2.86
X5.83Y-2.525
X5.875Y-2.359
X5.9Y-3.255
X5.9Y-3.465
X5.94Y-3.955
X5.975Y-1.835
X5.995Y-3.205
X6.015Y-2.425
X6.015Y-3.3
X6.049Y-2.364
X6.06Y-3.41
X6.075Y-3.61
X6.115Y-3.31
X6.17Y-2.745
X6.1711Y-3.491
X6.21Y-3.125
X6.28Y-1.835
X6.31Y-2.91
X6.325Y-2.63
X6.415Y-2.77
X6.48Y-2.34
X6.515Y-1.835
X6.625Y-2.345
X6.74Y-1.835
X7.307Y-3.225
T2
X3.0567Y-5.71
X3.0869Y-5.6369
X3.0869Y-5.7831
X3.16Y-5.6067
X3.16Y-5.8133
X3.2331Y-5.6369
X3.2331Y-5.7831
X3.2633Y-5.71
X7.8917Y-5.71
X7.9219Y-5.6369
X7.9219Y-5.7831
X7.995Y-5.6067
X7.995Y-5.8133
X8.0681Y-5.6369
X8.0681Y-5.7831
X8.0983Y-5.71
X7.8917Y-1.965
X7.9219Y-1.8919
X7.9219Y-2.0381
X7.995Y-1.8617
X7.995Y-2.0683
X8.0681Y-1.8919
X8.0681Y-2.0381
X8.0983Y-1.965
T3
X4.2584Y-2.9175
X4.2584Y-3.2167
T4
X6.4247Y-3.5205
X6.482Y-2.5126
X6.5607Y-2.3945
X6.6109Y-3.5205
X6.6237Y-2.5126
X6.6867Y-2.3945
X6.7497Y-2.5126
X6.7972Y-3.5205
X6.8127Y-2.3945
X6.8757Y-2.5126
X6.9387Y-2.3945
X6.9834Y-3.5205
X7.0017Y-2.5126
X7.0647Y-2.3945
X7.1696Y-3.5205
X7.1985Y-2.5126
X7.2615Y-2.3945
X7.3558Y-3.5205
X7.4033Y-2.5126
X7.4663Y-2.3945
X7.542Y-3.5205
X7.5922Y-2.5126
X7.671Y-2.3945
X7.7304Y-3.5205
X3.156Y-2.9175
X3.156Y-3.5159
X3.195Y-1.9895
X3.195Y-2.5895
X3.295Y-1.9895
X3.295Y-2.5895
X3.395Y-1.9895
X3.395Y-2.5895
X3.495Y-1.9895
X3.495Y-2.5895
X3.595Y-1.9895
X3.595Y-2.5895
X3.695Y-1.9895
X3.695Y-2.5895
X3.795Y-1.9895
X3.795Y-2.5895
X3.895Y-1.9895
X3.895Y-2.5895
X3.995Y-1.9895
X3.995Y-2.5895
X4.095Y-1.9895
X4.095Y-2.5895
X4.195Y-1.9895
X4.195Y-2.5895
X4.295Y-1.9895
X4.295Y-2.5895
X4.395Y-1.9895
X4.395Y-2.5895
X4.495Y-1.9895
X4.495Y-2.5895
X4.595Y-1.9895
X4.595Y-2.5895
T5
X3.6857Y-4.88
X3.981Y-4.88
X3.1507Y-4.88
X3.446Y-4.88
X3.205Y-2.135
X3.205Y-2.235
X3.205Y-2.335
X3.205Y-2.435
X3.1872Y-3.9075
X3.636Y-3.9075
T6
X3.955Y-3.9078
X3.955Y-4.085
X4.3487Y-3.9078
X4.3487Y-4.085
X3.1362Y-5.3665
X4.022Y-5.3665
T7
X3.287Y-4.22
X3.287Y-4.4169
X3.287Y-4.6137
X6.33Y-5.595
X6.5269Y-5.595
X6.7237Y-5.595
X5.765Y-5.595
X5.9619Y-5.595
T8
X3.825Y-5.663
X4.025Y-5.663
X4.225Y-5.663
X4.425Y-5.663
T9
X7.9855Y-3.261
X7.9855Y-3.861
T10
X7.244Y-4.693
X7.6377Y-4.693
X5.018Y-4.6955
X5.4117Y-4.6955
T11
X3.16Y-5.71
X7.995Y-5.71
X7.995Y-1.965
T0
M30
