G04 #@! TF.GenerationSoftware,KiCad,Pcbnew,(5.1.2)-2*
G04 #@! TF.CreationDate,2019-08-01T21:41:24-03:00*
G04 #@! TF.ProjectId,Frequency_Inverter,46726571-7565-46e6-9379-5f496e766572,rev?*
G04 #@! TF.SameCoordinates,Original*
G04 #@! TF.FileFunction,Soldermask,Bot*
G04 #@! TF.FilePolarity,Negative*
%FSLAX46Y46*%
G04 Gerber Fmt 4.6, Leading zero omitted, Abs format (unit mm)*
G04 Created by KiCad (PCBNEW (5.1.2)-2) date 2019-08-01 21:41:24*
%MOMM*%
%LPD*%
G04 APERTURE LIST*
%ADD10C,0.100000*%
%ADD11R,2.000000X2.000000*%
%ADD12O,2.000000X2.000000*%
%ADD13O,2.100000X2.100000*%
%ADD14R,2.100000X2.100000*%
%ADD15C,3.100000*%
%ADD16C,2.700000*%
%ADD17R,2.700000X2.400000*%
%ADD18C,2.400000*%
%ADD19C,2.800000*%
%ADD20R,4.400000X4.400000*%
%ADD21C,4.400000*%
%ADD22C,3.200000*%
%ADD23R,3.200000X3.200000*%
%ADD24O,3.600000X3.600000*%
%ADD25R,3.600000X3.600000*%
%ADD26C,2.600000*%
%ADD27O,4.360000X2.380000*%
%ADD28R,4.360000X2.380000*%
%ADD29R,2.380000X4.360000*%
%ADD30O,2.380000X4.360000*%
%ADD31C,1.924000*%
%ADD32C,1.200000*%
%ADD33C,7.400000*%
G04 APERTURE END LIST*
D10*
G36*
X178816000Y-96012000D02*
G01*
X172085000Y-102743000D01*
X172085000Y-141732000D01*
X169291000Y-141732000D01*
X169291000Y-101600000D01*
X176022000Y-94869000D01*
X176022000Y-89916000D01*
X178816000Y-89916000D01*
X178816000Y-96012000D01*
G37*
X178816000Y-96012000D02*
X172085000Y-102743000D01*
X172085000Y-141732000D01*
X169291000Y-141732000D01*
X169291000Y-101600000D01*
X176022000Y-94869000D01*
X176022000Y-89916000D01*
X178816000Y-89916000D01*
X178816000Y-96012000D01*
G36*
X173863000Y-93726000D02*
G01*
X167132000Y-100711000D01*
X167132000Y-141732000D01*
X164338000Y-141732000D01*
X164338000Y-99568000D01*
X171323000Y-92583000D01*
X171323000Y-89789000D01*
X173863000Y-89789000D01*
X173863000Y-93726000D01*
G37*
X173863000Y-93726000D02*
X167132000Y-100711000D01*
X167132000Y-141732000D01*
X164338000Y-141732000D01*
X164338000Y-99568000D01*
X171323000Y-92583000D01*
X171323000Y-89789000D01*
X173863000Y-89789000D01*
X173863000Y-93726000D01*
G36*
X169291000Y-91440000D02*
G01*
X162052000Y-98679000D01*
X162052000Y-141097000D01*
X159385000Y-141097000D01*
X159385000Y-97536000D01*
X166624000Y-90297000D01*
X166624000Y-89789000D01*
X169291000Y-89789000D01*
X169291000Y-91440000D01*
G37*
X169291000Y-91440000D02*
X162052000Y-98679000D01*
X162052000Y-141097000D01*
X159385000Y-141097000D01*
X159385000Y-97536000D01*
X166624000Y-90297000D01*
X166624000Y-89789000D01*
X169291000Y-89789000D01*
X169291000Y-91440000D01*
D11*
X81153000Y-65773300D03*
D12*
X114173000Y-50533300D03*
X83693000Y-65773300D03*
X111633000Y-50533300D03*
X86233000Y-65773300D03*
X109093000Y-50533300D03*
X88773000Y-65773300D03*
X106553000Y-50533300D03*
X91313000Y-65773300D03*
X104013000Y-50533300D03*
X93853000Y-65773300D03*
X101473000Y-50533300D03*
X96393000Y-65773300D03*
X98933000Y-50533300D03*
X98933000Y-65773300D03*
X96393000Y-50533300D03*
X101473000Y-65773300D03*
X93853000Y-50533300D03*
X104013000Y-65773300D03*
X91313000Y-50533300D03*
X106553000Y-65773300D03*
X88773000Y-50533300D03*
X109093000Y-65773300D03*
X86233000Y-50533300D03*
X111633000Y-65773300D03*
X83693000Y-50533300D03*
X114173000Y-65773300D03*
X81153000Y-50533300D03*
X116713000Y-65773300D03*
X116713000Y-50533300D03*
D13*
X81407000Y-54229000D03*
X81407000Y-56769000D03*
X81407000Y-59309000D03*
D14*
X81407000Y-61849000D03*
D15*
X196977000Y-78867000D03*
X163068000Y-78740000D03*
D16*
X108162400Y-74104500D03*
D17*
X80162400Y-74104500D03*
D16*
X80162400Y-89304500D03*
X108162400Y-81704500D03*
D18*
X101117400Y-123952000D03*
X93617400Y-123952000D03*
D19*
X102158800Y-136309100D03*
X79658800Y-136309100D03*
D18*
X80028400Y-123952000D03*
X87528400Y-123952000D03*
D20*
X127457200Y-119265700D03*
D21*
X137457200Y-119265700D03*
X193997600Y-119202200D03*
D20*
X183997600Y-119202200D03*
D22*
X97155000Y-143840200D03*
X102235000Y-143840200D03*
X107315000Y-143840200D03*
D23*
X112395000Y-143840200D03*
D24*
X202831700Y-82829400D03*
D25*
X202831700Y-98069400D03*
D18*
X92354400Y-99250500D03*
X80954400Y-99250500D03*
D26*
X110457000Y-103759000D03*
X110457000Y-99259000D03*
X100457000Y-99259000D03*
X100457000Y-103759000D03*
D27*
X83489800Y-117188000D03*
X83489800Y-112188000D03*
D28*
X83489800Y-107188000D03*
D29*
X146431000Y-142113000D03*
D30*
X151431000Y-142113000D03*
D29*
X160782000Y-142113000D03*
D30*
X165782000Y-142113000D03*
X170782000Y-142113000D03*
D31*
X184442800Y-60820300D03*
X182842800Y-63820300D03*
X164642800Y-63820300D03*
X166642800Y-60820300D03*
X168242800Y-63820300D03*
X169842800Y-60820300D03*
X171442800Y-63820300D03*
X173042800Y-60820300D03*
X174642800Y-63820300D03*
X176242800Y-60820300D03*
X177842800Y-63820300D03*
X179442800Y-60820300D03*
X194842800Y-60820300D03*
X192842800Y-63820300D03*
X189642800Y-60820300D03*
X188042800Y-63820300D03*
X163187800Y-89420300D03*
X167917800Y-89420300D03*
X172647800Y-89420300D03*
X177377800Y-89420300D03*
X182107800Y-89420300D03*
X186837800Y-89420300D03*
X191567800Y-89420300D03*
X196352800Y-89420300D03*
D32*
X82120155Y-143177845D03*
X80264000Y-142409000D03*
X78407845Y-143177845D03*
X77639000Y-145034000D03*
X78407845Y-146890155D03*
X80264000Y-147659000D03*
X82120155Y-146890155D03*
X82889000Y-145034000D03*
D33*
X80264000Y-145034000D03*
D32*
X204929155Y-143177845D03*
X203073000Y-142409000D03*
X201216845Y-143177845D03*
X200448000Y-145034000D03*
X201216845Y-146890155D03*
X203073000Y-147659000D03*
X204929155Y-146890155D03*
X205698000Y-145034000D03*
D33*
X203073000Y-145034000D03*
D32*
X204929155Y-48054845D03*
X203073000Y-47286000D03*
X201216845Y-48054845D03*
X200448000Y-49911000D03*
X201216845Y-51767155D03*
X203073000Y-52536000D03*
X204929155Y-51767155D03*
X205698000Y-49911000D03*
D33*
X203073000Y-49911000D03*
M02*
